<svg width="637" height="147" viewBox="0 0 637 147" fill="none" xmlns="http://www.w3.org/2000/svg">
<path fill-rule="evenodd" clip-rule="evenodd" d="M109.821 0.000615082L0 0V72.1214H74.6512V146.429H146.429V109.822L109.822 73.2152H146.429V36.6079L109.821 0.000615082ZM0 146.429V84.7446H60.2954V146.429H0ZM395.651 109.26C399.243 111.011 403.562 111.886 408.608 111.886C414.341 111.886 419.501 110.668 424.087 108.232C428.674 105.721 432.305 102.258 434.98 97.8432C437.656 93.3526 438.993 88.177 438.993 82.3164C438.993 76.3035 437.656 71.0899 434.98 66.6754C432.381 62.2609 428.788 58.8359 424.202 56.4003C419.692 53.8886 414.494 52.6327 408.608 52.6327C403.486 52.6327 399.129 53.3939 395.536 54.9161C391.943 56.4383 389.038 58.5695 386.822 61.3095C384.605 63.9734 382.961 67.094 381.891 70.6712V31.055H366.985V110.63H380.859C381.088 108.879 381.318 106.634 381.547 103.894C381.776 101.078 381.891 98.4521 381.891 96.0165V92.2097L381.909 92.2711L381.933 92.3514C381.957 92.4314 381.981 92.5114 382.006 92.5915C383.076 96.0165 384.719 99.2132 386.936 102.182C389.153 105.074 392.058 107.433 395.651 109.26ZM381.891 82.3164C381.891 78.4347 382.77 75.1618 384.528 72.4979C386.363 69.7579 388.924 67.6648 392.211 66.2187C395.498 64.7726 399.358 64.0495 403.792 64.0495C410.137 64.0495 415.029 65.724 418.469 69.0729C421.985 72.4218 423.743 76.8363 423.743 82.3164C423.743 85.9697 422.902 89.1664 421.221 91.9065C419.615 94.5704 417.322 96.6635 414.341 98.1857C411.36 99.7079 407.843 100.469 403.792 100.469C399.282 100.469 395.383 99.7079 392.096 98.1857C388.809 96.6635 386.286 94.5323 384.528 91.7923C382.77 89.0523 381.891 85.8936 381.891 82.3164ZM206 110.63V36.7634H256.337C262.07 36.7634 267.039 37.5626 271.244 39.1609C275.524 40.6832 278.85 43.1188 281.219 46.4677C283.589 49.7405 284.774 53.9647 284.774 59.1403C284.774 62.6414 284.162 65.6098 282.939 68.0454C281.716 70.481 279.996 72.4599 277.779 73.9821C275.639 75.5044 273.155 76.6841 270.326 77.5213C268.998 77.8789 267.627 78.1776 266.214 78.4176C268.722 78.6478 270.933 78.996 272.849 79.4622C276.289 80.2233 278.85 81.6694 280.531 83.8006C282.289 85.8556 283.169 88.9381 283.169 93.0481V110.63H267.918V94.0757C267.918 91.2595 267.421 89.0903 266.428 87.5681C265.434 85.9697 263.638 84.8661 261.038 84.2572C258.516 83.6483 254.847 83.3439 250.031 83.3439H221.25V110.63H206ZM221.25 71.4704H256.337C260.618 71.4704 263.867 70.4429 266.084 68.3879C268.377 66.3329 269.524 63.5548 269.524 60.0536C269.524 56.7047 268.377 54.155 266.084 52.4044C263.867 50.6538 260.618 49.7785 256.337 49.7785H221.25V71.4704ZM344.656 91.7923H359.104C358.492 95.674 356.848 99.1371 354.173 102.182C351.574 105.226 348.019 107.624 343.509 109.374C338.999 111.125 333.495 112 326.998 112C319.736 112 313.315 110.858 307.734 108.575C302.154 106.216 297.797 102.829 294.663 98.414C291.529 93.9996 289.961 88.6717 289.961 82.4305C289.961 76.1894 291.49 70.8615 294.548 66.447C297.606 61.9564 301.848 58.5314 307.276 56.1719C312.779 53.8125 319.201 52.6327 326.539 52.6327C334.03 52.6327 340.26 53.8125 345.229 56.1719C350.198 58.5314 353.867 62.1087 356.237 66.9037C358.683 71.6227 359.715 77.6736 359.333 85.0564H304.982C305.365 87.9487 306.435 90.5745 308.193 92.934C310.028 95.2934 312.474 97.1582 315.531 98.5282C318.665 99.8982 322.373 100.583 326.654 100.583C331.393 100.583 335.33 99.7841 338.464 98.1857C341.675 96.5112 343.739 94.3801 344.656 91.7923ZM325.851 63.9354C320.347 63.9354 315.875 65.1531 312.435 67.5887C308.996 69.9482 306.779 72.8785 305.785 76.3796H344.541C344.159 72.5741 342.324 69.5676 339.037 67.3604C335.827 65.077 331.431 63.9354 325.851 63.9354ZM496.227 91.7923H510.674C510.063 95.674 508.419 99.1371 505.744 102.182C503.145 105.226 499.59 107.624 495.08 109.374C490.57 111.125 485.066 112 478.568 112C471.306 112 464.885 110.858 459.305 108.575C453.725 106.216 449.368 102.829 446.233 98.414C443.099 93.9996 441.532 88.6717 441.532 82.4305C441.532 76.1894 443.061 70.8615 446.119 66.447C449.176 61.9564 453.419 58.5314 458.846 56.1719C464.35 53.8125 470.771 52.6327 478.11 52.6327C485.601 52.6327 491.831 53.8125 496.8 56.1719C501.769 58.5314 505.438 62.1087 507.808 66.9037C510.254 71.6227 511.286 77.6736 510.904 85.0564H456.553C456.935 87.9487 458.005 90.5745 459.764 92.934C461.598 95.2934 464.044 97.1582 467.102 98.5282C470.236 99.8982 473.944 100.583 478.224 100.583C482.964 100.583 486.901 99.7841 490.035 98.1857C493.245 96.5112 495.309 94.3801 496.227 91.7923ZM477.422 63.9354C471.918 63.9354 467.446 65.1531 464.006 67.5887C460.566 69.9482 458.349 72.8785 457.356 76.3796H496.112C495.73 72.5741 493.895 69.5676 490.608 67.3604C487.398 65.077 483.002 63.9354 477.422 63.9354ZM532.315 31.055H517.409V110.63H532.315V31.055ZM615.96 36.7634V49.436H558.858V69.3012H605.641V81.1747H558.858V110.63H543.608V36.7634H615.96ZM636.739 49.4359V36.7634H621.832V49.4359H636.739ZM636.739 53.8886H621.832V110.63H636.739V53.8886Z" fill="white"/>
</svg>
